<?xml version="1.0" encoding="UTF-8"?>
<svg viewBox="0 0 744.09447 1052.362179" xmlns="http://www.w3.org/2000/svg" xmlns:xlink="http://www.w3.org/1999/xlink">
 <defs>
  <linearGradient id="b">
   <stop stop-color="#fff" offset="0"/>
   <stop stop-color="#fff" stop-opacity=".2275" offset="1"/>
  </linearGradient>
  <linearGradient id="g">
   <stop stop-color="#ffff4f" offset="0"/>
   <stop stop-color="#6f5545" offset="1"/>
  </linearGradient>
  <linearGradient id="d" x1="-.014494" x2=".55072" y1=".31297" y2=".61832">
   <stop stop-color="#fffffd" offset="0"/>
   <stop stop-color="#ffff4f" offset="1"/>
  </linearGradient>
  <linearGradient id="c" x1="-6.2562e-9">
   <stop stop-color="#ffff4f" offset="0"/>
   <stop stop-color="#6f5545" stop-opacity="0" offset="1"/>
  </linearGradient>
  <linearGradient id="j" x1=".38461" x2=".58974" y1=".41985" y2=".52672" spreadMethod="reflect">
   <stop stop-color="#fff" stop-opacity=".5294" offset="0"/>
   <stop stop-color="#fff" stop-opacity="0" offset="1"/>
  </linearGradient>
  <linearGradient id="f" x1=".05406" x2="1.7297" y1=".01561" y2=".42187" xlink:href="#g"/>
  <linearGradient id="e" x1="286.99" x2="343.97" y1="415.86" y2="467.19" gradientTransform="scale(.7207 1.3875)" gradientUnits="userSpaceOnUse" xlink:href="#g"/>
  <linearGradient id="k" x1=".4141" x2=".15859" y1=".4434" y2="-.07547" xlink:href="#b"/>
  <radialGradient id="a" cx=".29231" cy=".94531" r=".89917">
   <stop stop-opacity=".1569" offset="0"/>
   <stop stop-color="#ffffb2" offset="1"/>
  </radialGradient>
  <radialGradient id="i" cx=".50389" cy=".50796" r=".87152">
   <stop stop-color="#8c8c00" offset="0"/>
   <stop stop-color="#ffff4f" offset="1"/>
  </radialGradient>
  <radialGradient id="h" cx=".52282" cy=".49997" r=".90479" xlink:href="#b"/>
 </defs>
 <path transform="translate(-63.717 -145.93)" d="m100.06 895.37 44.855-239.8s89.71-172.52 106.96-210.47 36.229-101.79 43.13-108.69 39.679-15.526 56.931-5.1755c24.153 10.351 39.679 36.229 39.679 43.13-3.4503 17.252-48.305 67.282-82.809 193.22-18.977 60.381-8.6259 127.66-8.6259 127.66s-62.107 8.6259-93.16 37.954c-48.305 41.404-106.96 163.89-106.96 162.17z" fill="url(#d)" fill-rule="evenodd" stroke="#000"/>
 <path transform="translate(-63.717 -145.93)" d="m357.31 334.06c21.062 11.438 34.312 33.938 34.312 40.312-3.4375 17.25-48.312 67.25-82.812 193.19-19 60.375-8.625 127.69-8.625 127.69s-62.125 8.625-93.188 37.938c-48.312 41.438-106.94 163.94-106.94 162.19l119.04-296.82 138.21-264.49" fill="url(#e)" fill-rule="evenodd"/>
 <path transform="translate(-63.717 -145.93)" d="m544.62 185.62c-35.75 78.688-75.875 148.44-114.69 201.81l-40.375-19.625c-4.75-10.438-18.5-28.375-37.625-36.562-11.125-6.6875-28.75-5.5-41.625-1.875l-36.25-17.562c11.75-48.5 29.75-103.5 53.688-161.25h233.06c-0.5625 0.8125-1.1875 1.5-1.9375 2.125-4.4375 10.812-9.1875 21.812-14.25 32.938z" fill-rule="evenodd" stroke="#000"/>
 <path transform="translate(-63.717 -145.93)" d="m430.62 388.81c-6.9375 14.375-28.125 19.625-54.188 15.375 8.75-15.438 14.062-24.312 15.188-29.812 0-6.9375-15.562-32.812-39.688-43.125-17.25-10.375-50-1.75-56.938 5.1875-2 2-5 8.75-8.875 19.062-13.312-15.312-18.562-31.125-12.75-43.062 10.688-21.938 54.5-22.625 97.938-1.5 43.438 21.062 70 55.938 59.312 77.875z" fill-rule="evenodd" stroke="#000"/>
 <path transform="matrix(.75319 .43601 -.47048 .99913 58.815 -329.07)" d="m465.6 614.45a7.7889 15.578 0 1 0 -15.578 0 7.7889 15.578 0 1 0 15.578 0z" fill-rule="evenodd"/>
 <path transform="translate(-63.717 -145.93)" d="m170.73 644.19c-40.389 99.748-70.986 251.51-70.986 251.51" fill="none" stroke="url(#f)" stroke-width="1.875"/>
 <path transform="translate(-63.717 -145.93)" d="m270.85 671.1s-3.4504-10.351 8.6259-60.381c17.252-117.31 96.61-236.35 96.61-236.35l-10.351-22.427-167.34 360.56s27.603-29.328 44.855-34.504 29.328-5.1756 27.603-6.9008z" fill="#ffffb2"/>
 <path transform="translate(-63.717 -145.93)" d="m270.85 671.1s-3.4504-10.351 8.6259-60.381c17.252-117.31 96.61-236.35 96.61-236.35l-10.351-22.427-167.34 360.56s27.603-29.328 44.855-34.504 29.328-5.1756 27.603-6.9008z" fill="url(#a)"/>
 <path transform="translate(-63.717 -145.93)" d="m262.18 421.23c-3.1286 12.421 0.8434 15.054 7.5752 15.584 11.586 0.9531 25.285-4.4367 55.686-31.985-61.276 62.951-65.576 77.435-100.54 128.74 17.883-62.519 27.69-85.366 37.282-112.34z" fill="url(#c)" fill-rule="evenodd"/>
 <path transform="matrix(.74969 -.66179 -.66179 -.74969 556.28 1489.1)" d="m100.06 895.37 44.855-239.8s89.71-172.52 106.96-210.47 36.229-101.79 43.13-108.69 39.679-15.526 56.931-5.1755c24.153 10.351 39.679 36.229 39.679 43.13-3.4503 17.252-48.305 67.282-82.809 193.22-18.977 60.381-8.6259 127.66-8.6259 127.66s-62.107 8.6259-93.16 37.954c-48.305 41.404-106.96 163.89-106.96 162.17z" fill="url(#d)" fill-rule="evenodd" stroke="#000"/>
 <path transform="matrix(.74969 -.66179 -.66179 -.74969 556.28 1489.1)" d="m357.31 334.06c21.062 11.438 34.312 33.938 34.312 40.312-3.4375 17.25-48.312 67.25-82.812 193.19-19 60.375-8.625 127.69-8.625 127.69s-62.125 8.625-93.188 37.938c-48.312 41.438-106.94 163.94-106.94 162.19l119.04-296.82 138.21-264.49" fill="url(#e)" fill-rule="evenodd"/>
 <path transform="matrix(.27611 -.82532 -1.0139 -.43767 769.34 1545.3)" d="m465.6 614.45a7.7889 15.578 0 1 0 -15.578 0 7.7889 15.578 0 1 0 15.578 0z" fill-rule="evenodd"/>
 <path transform="matrix(.74969 -.66179 -.66179 -.74969 556.28 1489.1)" d="m170.73 644.19c-40.389 99.748-70.986 251.51-70.986 251.51" fill="none" stroke="url(#f)" stroke-width="1.875"/>
 <path transform="matrix(.74969 -.66179 -.66179 -.74969 556.28 1489.1)" d="m270.85 671.1s-3.4504-10.351 8.6259-60.381c17.252-117.31 96.61-236.35 96.61-236.35l-10.351-22.427-167.34 360.56s27.603-29.328 44.855-34.504 29.328-5.1756 27.603-6.9008z" fill="#ffffb2"/>
 <path transform="matrix(.74969 -.66179 -.66179 -.74969 556.28 1489.1)" d="m270.85 671.1s-3.4504-10.351 8.6259-60.381c17.252-117.31 96.61-236.35 96.61-236.35l-10.351-22.427-167.34 360.56s27.603-29.328 44.855-34.504 29.328-5.1756 27.603-6.9008z" fill="url(#a)"/>
 <path transform="matrix(.74969 -.66179 -.66179 -.74969 556.28 1489.1)" d="m262.18 421.23c-3.1286 12.421 0.8434 15.054 7.5752 15.584 11.586 0.9531 25.285-4.4367 55.686-31.985-61.276 62.951-65.576 77.435-100.54 128.74 17.883-62.519 27.69-85.366 37.282-112.34z" fill="url(#c)" fill-rule="evenodd"/>
 <path d="m2.1875 1052.4h741.88v-300.94h-741.88v300.94z" fill="url(#k)" fill-rule="evenodd"/>
 <path transform="translate(-10.978 4.2224)" d="m49.402 746.13a2.0056 2.0056 0 1 0 -4.0113 0 2.0056 2.0056 0 1 0 4.0113 0z" fill="url(#i)" fill-rule="evenodd" stroke="#8c8c8c" stroke-width=".125"/>
 <path d="m321.13 191.51c5.1441 2.5721 14.457 3.3387 18.471 6.1697 7.8785 5.5567 14.15 15.641 14.404 25.061 0.4977 18.401-19.461-0.4846-16.068-0.5755 12.344-0.3306-19.374-32.669-16.807-30.655z" fill="url(#h)" fill-rule="evenodd"/>
 <path d="m272.76 127.68 29.017 5.8034 87.052-131.55-77.38 1.9344-38.69 123.81z" fill="url(#j)" fill-rule="evenodd"/>
</svg>
