<?xml version="1.0" encoding="UTF-8"?>
<svg viewBox="0 0 100 100" xmlns="http://www.w3.org/2000/svg" xmlns:xlink="http://www.w3.org/1999/xlink">
 <defs>
  <linearGradient id="a">
   <stop stop-color="#fff" offset="0"/>
   <stop stop-color="#fff" stop-opacity="0" offset="1"/>
  </linearGradient>
  <linearGradient id="e" x1="80.239" x2="18.904" y1="81.056" y2="13.945" gradientTransform="scale(.88267 1.1329)" gradientUnits="userSpaceOnUse">
   <stop offset="0"/>
   <stop stop-color="#606060" offset="1"/>
  </linearGradient>
  <linearGradient id="d" x1="-19.04" x2="15.224" y1="52.714" y2="111.34" gradientTransform="matrix(1.2691 -.13167 .080881 .77957 3.5237e-17 -5.356e-17)" gradientUnits="userSpaceOnUse" xlink:href="#a"/>
  <linearGradient id="c" x1="71.088" x2="97.343" y1="-6.6212" y2="37.164" gradientTransform="matrix(.60451 -.062719 .1698 1.6366 0 0)" gradientUnits="userSpaceOnUse" xlink:href="#a"/>
  <linearGradient id="b" x1="95.225" x2="156.68" y1="4.4251" y2="20.793" gradientTransform="scale(.5831 1.715)" gradientUnits="userSpaceOnUse" xlink:href="#a"/>
 </defs>
 <g transform="matrix(.96927,0,0,.96927,.38699,2.0647)">
  <path d="m69 2.3125c-4.182 6.7229-5.1624 15.576-8.1536 23.086l-11.94 37.758c-11-12.497-34.63-4.7486-36 11.959-2.9368 15.69 15.411 29.887 29.906 22.698 13.674-7.188 14.049-24.626 18.982-37.497l10.705-35.472c3.6591 9.5669 8.8614 23.029-0.81669 30.796-6.0381 2.8495-4.2854 14.034 3.2229 11.735 13.14-5.4587 18.013-23.406 12.055-35.86-4.4189-9.2931-10.012-18.167-15.22-27.083-0.76261-0.6829-1.2657-3.0301-2.7409-2.1196z"/>
  <path d="m69.658 4.101-2.3173 7.3408-17.546 55.576c-3.9341-5.5448-10.574-8.9252-17.814-8.1741-10.69 1.1091-18.465 10.683-17.356 21.374s10.684 18.465 21.374 17.356c8.4287-0.87448 14.96-7.0502 16.839-14.848l19.371-64.055c1.6908 2.9616 3.6794 9.8446 5.0451 13.829 1.6293 4.7539 2.5289 9.796 1.8532 14.228s-2.667 8.3338-7.5467 11.748c-1.3023 0.76034-2.0634 2.1868-1.9733 3.6921s1.014 2.8276 2.3977 3.4271 2.9891 0.37615 4.149-0.58755c6.5203-4.5618 9.9044-10.785 10.86-17.056s0.37423-12.566-2.2131-17.065c-5.0598-7.8905-8.2005-14.225-10.907-18.739-1.2475-2.6987-2.8113-5.3646-4.217-8.0468z" fill="url(#e)"/>
  <path d="m28.343 60.415c-7.297 2.3556-11.243 7.7307-12.469 14.228 6.6469 28.461 14.41-11.38 33.392-6.1874 0.36888-1.9902-8.9621-11.569-20.923-8.0407z" fill="url(#d)"/>
  <path d="m50.706 66.934c4.8016-2.2725 14.704-50.34 20.975-50.353-1.84-0.42947-2.1713-3.2401-2.2861-9.7912-0.32803 1.0519-18.474 60.367-18.689 60.145z" fill="url(#c)"/>
  <path d="m71.542 16.852s22.417 33.863 6.5183 35.93c3.6566-4.2925 3.8156-16.534-6.5183-35.93z" fill="url(#b)" fill-rule="evenodd"/>
 </g>
</svg>
