<?xml version="1.0" encoding="UTF-8"?>
<svg viewBox="0 0 320 320" xmlns="http://www.w3.org/2000/svg" xmlns:xlink="http://www.w3.org/1999/xlink">
 <defs>
  <linearGradient id="af" x1="-.24282" x2="1.2425" y1=".49995" y2=".49995" xlink:href="#a"/>
  <linearGradient id="z" x1="-.069117" x2="1.069" y1=".49998" y2=".49998" xlink:href="#r"/>
  <linearGradient id="x" x1=".30093" x2="1.0426" y1=".41846" y2=".49998" xlink:href="#a"/>
  <linearGradient id="y" x1=".35446" x2="1.0309" y1=".66668" y2=".50002">
   <stop stop-color="#f3ed78" offset="0"/>
   <stop stop-color="#b8ae10" offset=".5"/>
   <stop stop-color="#f3ed78" offset="1"/>
  </linearGradient>
  <linearGradient id="aa" x1=".61942" x2=".41363" y1=".29689" y2=".066752" xlink:href="#b"/>
  <linearGradient id="ab" x1=".4439" x2=".40976" y1=".27242" y2=".17586">
   <stop stop-color="#c50000" offset="0"/>
   <stop stop-color="#c50000" stop-opacity="0" offset="1"/>
  </linearGradient>
  <linearGradient id="ae" x1="-.092686" x2="1.0926" y1=".5" y2=".5" xlink:href="#a"/>
  <linearGradient id="ac" x1=".46146" x2=".75325" y1=".91132" y2=".19356" xlink:href="#s"/>
  <linearGradient id="ad" x1="-.051253" x2="1.0512" y1=".49998" y2=".49998" xlink:href="#s"/>
  <linearGradient id="w" x1=".25759" x2=".71387" y1=".37692" y2=".5" xlink:href="#a"/>
  <linearGradient id="v" x1=".45012" x2=".60717" y1=".36926" y2=".6416" xlink:href="#r"/>
  <linearGradient id="s">
   <stop stop-color="#6e00d0" offset="0"/>
   <stop stop-color="#6396cc" offset=".5"/>
   <stop stop-color="#5954c8" offset="1"/>
  </linearGradient>
  <linearGradient id="a">
   <stop stop-color="#fff" offset="0"/>
   <stop stop-color="#7f7f7f" offset=".5"/>
   <stop stop-color="#fff" offset="1"/>
  </linearGradient>
  <linearGradient id="r">
   <stop stop-color="#ff6900" offset="0"/>
   <stop stop-color="#ffb47f" offset="0"/>
   <stop stop-color="#ff7100" offset="1"/>
  </linearGradient>
  <linearGradient id="u" x1=".21889" x2=".18108" y1=".29237" y2=".050836" xlink:href="#b"/>
  <linearGradient id="b">
   <stop stop-color="#e00000" offset="0"/>
   <stop stop-color="#ff8986" offset="1"/>
  </linearGradient>
  <linearGradient id="t" x1="-.037968" x2="1.015" y1=".5" y2=".5" xlink:href="#b"/>
 </defs>
 <g fill-rule="evenodd">
  <path d="m28.552 102.57l99.737-9.8542-19.193 131.32-80.544-121.47z" fill="url(#t)" stroke="#000" stroke-linejoin="round" stroke-width="3"/>
  <path d="m128.29 91.706l-21.213 90.409 127.28 28.789 6.566-82.327-40.406-33.335-72.226-3.5355z" fill="url(#u)"/>
  <g stroke="#000">
   <path d="m158.18 25.508s-40.128 57.799-45.082 58.293c-4.9541 0.49401 15.358 6.4222 15.358 6.4222l32.697-38.039-2.9724-26.677z" fill="#545454" stroke-linejoin="round" stroke-width="2.938"/>
   <path d="m241.93 128.58c-2.0203-1.0102-114.15-37.881-114.15-37.881l34.85-40.406s124.75 38.386 130.31 32.83c5.5558-5.5558-50.508 45.962-51.013 45.457z" fill="#494949" stroke-width="3"/>
  </g>
  <path d="m195.33 114.47c-5.0508 1.5152-70.343 30.981-70.343 30.981l-9.9643 64.478 97.985-42.426-23.739-3.0305 6.0609-50.003z" fill="url(#aa)"/>
  <path d="m131.65 148.07s68.69-31.141 70.711-31.141c2.0203 0 13.637 5.1483 13.637 5.1483l19.193 6.2003-3.5355 42.109-77.277 21.798-22.728-44.116z" fill="url(#ab)"/>
  <g stroke="#000" stroke-linejoin="round">
   <path d="m165.22 158.59s63.269-30.521 78.186-27.519c-3.0863 22.015-1.5432 103.57-1.5432 103.57s-43.722 9.0062-79.729 54.538c3.0863-118.08 4.1151-130.09 3.0863-130.59z" fill="#666464" stroke-width="3.013"/>
   <path d="m161.16 51.088l-2.5536-26.93s87.333 30.486 134.32 27.946c-1.0214 18.8-5.6028 33.027-5.6028 33.027l-126.16-34.043z" fill="#3f3f3f" stroke-width="3.026"/>
  </g>
  <path d="m195.28 60.644l89.249 22.122-41.955 43.48s-8.3909-7.6281-9.1538-16.782c-0.76282-9.1538 2.2884-9.1538-5.3397-16.782-7.6281-7.6281-7.6281-8.391-12.205-13.731-4.5769-5.3397-6.1025-6.1025-12.968-9.9166-6.8653-3.8141-10.679-8.391-7.6281-8.391z" opacity=".068"/>
  <path d="m241.43 130.09l-0.5051-23.234 52.023-52.528 0.5051 29.294s-44.447 36.366-52.023 46.467z" fill="#3f3f3f" stroke="#000" stroke-linejoin="round" stroke-width="3"/>
  <path d="m121.72 88.675c7.0711 3.0305 57.579 20.203 57.579 20.203l-64.65 35.86-25.254-46.972 32.325-4.5457v-4.5457z" fill="#c50000"/>
  <g stroke="#000" stroke-width="3">
   <g stroke-linejoin="round">
    <path d="m52.86 74.578l70.121 45.309 13.485 4.3151 4.3151-4.8545-10.248-15.642-56.097-46.388-21.576 17.26z" fill="url(#ac)"/>
    <path d="m73.174 57.006a10.065 5.0185 0 1 1 -20.13 17.883 10.065 5.0185 0 1 1 20.13 -17.883z" fill="url(#ad)"/>
   </g>
   <path d="m156.07 65.442c-2.0203 2.0203-10.102 14.142-10.102 14.142l-1.0101 9.5965-18.183 39.396 10.102 2.5254 15.152-40.911 7.5761-6.566 2.5254-16.162-6.0609-2.0203z" fill="url(#w)"/>
   <path d="m104.55 136.15c1.0102-3.5355 8.5863-57.579 8.5863-57.579s-14.142-12.122 8.0812-25.759c2.5254 0.50508-0.50508 15.657-0.50508 15.657l7.5761 1.0101 3.5355-15.657s19.637 17.308-2.5254 30.81c-3.9567 16.732-11.112 61.114-11.112 61.114l-13.637-9.5965z" fill="url(#x)"/>
   <path d="m62.124 82.109c2.5254 1.5152 28.789 56.064 28.789 56.064l19.698-8.0812-27.274-55.558-21.213 7.5761z" fill="url(#y)"/>
   <path d="m126.27 141.2l51.518-32.83s5.5558-17.678-16.162-12.627c-12.627 8.0812-44.952 40.406-44.952 40.406l9.5965 5.0508z" fill="url(#v)"/>
   <path d="m178.26 108.83a7.7945 4.8848 0 1 1 -15.589 -14.052 7.7945 4.8848 0 1 1 15.589 14.052z" fill="url(#z)" stroke-linejoin="round"/>
   <g stroke-linejoin="round">
    <path d="m27.274 102.82s63.134 8.5863 137.38 55.558c3.0305 30.305-3.7933 130.56-3.7933 130.56s-43.684-56.816-131.06-101.77c-2.5254-69.7-3.0305-83.843-2.5254-84.348z" fill="#595959"/>
    <path d="m82.742 73.138a11.022 6.218 0 1 1 -22.043 7.8411 11.022 6.218 0 1 1 22.043 -7.8411z" fill="#f3ed78"/>
   </g>
  </g>
  <g fill="none">
   <path d="m163.84 253.74s37.539-41.326 76.028-42.841" stroke="#8f0000" stroke-width="3.044"/>
   <g stroke-width="3">
    <path d="m163.24 252.49s-86.579-77.807-134.26-86.198" stroke="#920000"/>
    <g stroke="#000">
     <path d="m163.58 241.83l-1.4455 22.851"/>
     <path d="m28.703 155.99l0.5683 22.89"/>
    </g>
   </g>
  </g>
  <path d="m61.025 112.51c3.8141 6.1025-11.442-4.5769 5.3397 15.256s12.968 25.173 25.936 25.173 9.9166-0.76282 22.122 2.2884 19.833 3.0512 19.833-2.2884c0-5.3397 3.0512-7.6281-4.5769-11.442-7.6281-3.8141-15.256-9.1538-19.833-10.679-4.5769-1.5256-49.583-18.308-48.82-18.308z" fill="#fff" opacity=".168"/>
  <g stroke="#000">
   <path d="m84.684 119.89l-1.0788 20.497 15.103 7.0121 1.0788-22.654-15.103-4.8545z" fill="url(#ae)" stroke-width="3"/>
   <path d="m88.46 133.91s-1.0788 5.3939 3.7757 1.6182 0.53939 3.2363 0.53939 3.2363l-4.3151-4.8545z" fill="url(#af)" stroke-width="2"/>
  </g>
  <path d="m43.48 110.99s-14.493-9.1538-14.493 2.2884-5.3397 62.551 3.0512 69.416c8.3909 6.8653 38.141 22.122 47.294 22.884 9.1538 0.76282 26.698 7.6281 18.308-12.205-8.391-19.833 10.679-4.5769-19.07-27.461-29.75-22.884-32.801-16.019-32.801-30.512s3.0512-13.731 0-18.308c-3.0512-4.5769-3.0512-6.8653-2.2884-6.1025z" opacity=".068"/>
  <g stroke="#000">
   <path d="m157.9 211.68c-6.8653 3.0512-8.3909 6.1025-12.968 17.545-4.5769 11.442-6.8653 16.782-13.731 13.731-6.8653-3.0512-29.75-16.782-29.75-16.782s48.057 40.429 51.871 47.294c1.8523 3.3341 5.3397 3.0512 5.3397-4.5769s-0.76282-16.782 0-28.987c0.7628-12.205 1.5256-20.596 1.5256-20.596l-2.2884-7.6281z" opacity=".116"/>
   <path d="m234.95 158.28c-4.5769 11.442 5.3397 5.3397-9.9166 24.41s-13.731 13.731-22.122 28.987c-8.3909 15.256-6.8653 16.782-15.256 25.173-8.391 8.3909-13.731 6.1025-11.442 12.968 2.2884 6.8653 1.5256 16.782 15.256 5.3397 5.5284-4.607 9.1538-12.968 22.884-12.968 13.731 0 22.122-9.1538 22.122-13.731 0-4.5769 0.76282-69.416-1.5256-70.179z" opacity=".1"/>
  </g>
  <g fill="#fff">
   <path d="m221.22 135.4c-6.8653 3.0512-54.16 22.122-54.16 22.122l-0.7628 35.852s6.8653 2.2884 11.442-9.1538c4.5769-11.442 2.2884-9.1538 6.1025-17.545 3.8141-8.3909 4.5769-11.442 15.256-12.968 10.679-1.5256 15.256 0 18.308-6.1025 3.0512-6.1025 3.8141-9.1538 3.8141-12.205z" opacity=".237"/>
   <path d="m141.12 146.84l22.122 12.205v33.564s0.76283 0.76282-6.8653-10.679-7.6281-7.6281-7.6281-14.493c0-6.8653 2.2884-3.8141-2.2884-9.1538-4.5769-5.3397-5.3397-6.8653-5.3397-6.8653v-4.5769z" opacity=".174"/>
  </g>
  <path d="m290.63 66.746c-3.0513 3.8141-10.679 10.679-16.782 17.545-6.1025 6.8653-6.1025 6.1025-11.442 11.442-5.3397 5.3397-4.5769 3.8141-11.442 13.731-6.8653 9.9166-7.6281 14.493-7.6281 14.493l49.583-40.429-2.2884-16.782z" fill="#7f7f7f" opacity=".084"/>
  <g stroke-linejoin="round" stroke-width="2">
   <path d="m224.39 96.501a8.8938 4.6248 0 1 1 -17.788 -6.8758 8.8938 4.6248 0 1 1 17.788 6.8758z" opacity=".326"/>
   <path d="m188.5 83.588a9.2417 4.8057 0 1 1 -18.483 -4.6952 9.2417 4.8057 0 1 1 18.483 4.6952z" opacity=".326"/>
  </g>
  <path d="m196.34 119.35c-9.709 7.5515-18.339 6.4727-30.206 10.788-11.867 4.3151-17.26 16.182-17.26 16.182s7.5515 4.3151 16.182-2.1576c8.6302-6.4727 8.6302-6.4727 19.418-6.4727s21.576-1.0788 21.576-6.4727-9.709-14.024-9.709-11.867z" fill="#ba2700"/>
 </g>
</svg>
